<svg aria-roledescription="er" role="graphics-document document" viewBox="0 0 340 341.20001220703125" style="max-width: 340px;" xmlns="http://www.w3.org/2000/svg" width="100%" id="mermaid-svg-1752241227694-0gyr00py2"><style>#mermaid-svg-1752241227694-0gyr00py2{font-family:"trebuchet ms",verdana,arial,sans-serif;font-size:16px;fill:rgba(204, 204, 204, 0.87);}#mermaid-svg-1752241227694-0gyr00py2 .error-icon{fill:#bf616a;}#mermaid-svg-1752241227694-0gyr00py2 .error-text{fill:#bf616a;stroke:#bf616a;}#mermaid-svg-1752241227694-0gyr00py2 .edge-thickness-normal{stroke-width:2px;}#mermaid-svg-1752241227694-0gyr00py2 .edge-thickness-thick{stroke-width:3.5px;}#mermaid-svg-1752241227694-0gyr00py2 .edge-pattern-solid{stroke-dasharray:0;}#mermaid-svg-1752241227694-0gyr00py2 .edge-pattern-dashed{stroke-dasharray:3;}#mermaid-svg-1752241227694-0gyr00py2 .edge-pattern-dotted{stroke-dasharray:2;}#mermaid-svg-1752241227694-0gyr00py2 .marker{fill:rgba(204, 204, 204, 0.87);stroke:rgba(204, 204, 204, 0.87);}#mermaid-svg-1752241227694-0gyr00py2 .marker.cross{stroke:rgba(204, 204, 204, 0.87);}#mermaid-svg-1752241227694-0gyr00py2 svg{font-family:"trebuchet ms",verdana,arial,sans-serif;font-size:16px;}#mermaid-svg-1752241227694-0gyr00py2 .entityBox{fill:#1a1a1a;stroke:#2a2a2a;}#mermaid-svg-1752241227694-0gyr00py2 .attributeBoxOdd{fill:#ffffff;stroke:#2a2a2a;}#mermaid-svg-1752241227694-0gyr00py2 .attributeBoxEven{fill:#f2f2f2;stroke:#2a2a2a;}#mermaid-svg-1752241227694-0gyr00py2 .relationshipLabelBox{fill:#88c0d0;opacity:0.7;background-color:#88c0d0;}#mermaid-svg-1752241227694-0gyr00py2 .relationshipLabelBox rect{opacity:0.5;}#mermaid-svg-1752241227694-0gyr00py2 .relationshipLine{stroke:rgba(204, 204, 204, 0.87);}#mermaid-svg-1752241227694-0gyr00py2 .entityTitleText{text-anchor:middle;font-size:18px;fill:rgba(204, 204, 204, 0.87);}#mermaid-svg-1752241227694-0gyr00py2 #MD_PARENT_START{fill:#f5f5f5!important;stroke:rgba(204, 204, 204, 0.87)!important;stroke-width:1;}#mermaid-svg-1752241227694-0gyr00py2 #MD_PARENT_END{fill:#f5f5f5!important;stroke:rgba(204, 204, 204, 0.87)!important;stroke-width:1;}#mermaid-svg-1752241227694-0gyr00py2 :root{--mermaid-font-family:"trebuchet ms",verdana,arial,sans-serif;}</style><g/><defs><marker orient="auto" markerHeight="240" markerWidth="190" refY="7" refX="0" id="MD_PARENT_START"><path d="M 18,7 L9,13 L1,7 L9,1 Z"/></marker></defs><defs><marker orient="auto" markerHeight="28" markerWidth="20" refY="7" refX="19" id="MD_PARENT_END"><path d="M 18,7 L9,13 L1,7 L9,1 Z"/></marker></defs><defs><marker orient="auto" markerHeight="18" markerWidth="18" refY="9" refX="0" id="ONLY_ONE_START"><path d="M9,0 L9,18 M15,0 L15,18" fill="none" stroke="gray"/></marker></defs><defs><marker orient="auto" markerHeight="18" markerWidth="18" refY="9" refX="18" id="ONLY_ONE_END"><path d="M3,0 L3,18 M9,0 L9,18" fill="none" stroke="gray"/></marker></defs><defs><marker orient="auto" markerHeight="18" markerWidth="30" refY="9" refX="0" id="ZERO_OR_ONE_START"><circle r="6" cy="9" cx="21" fill="white" stroke="gray"/><path d="M9,0 L9,18" fill="none" stroke="gray"/></marker></defs><defs><marker orient="auto" markerHeight="18" markerWidth="30" refY="9" refX="30" id="ZERO_OR_ONE_END"><circle r="6" cy="9" cx="9" fill="white" stroke="gray"/><path d="M21,0 L21,18" fill="none" stroke="gray"/></marker></defs><defs><marker orient="auto" markerHeight="36" markerWidth="45" refY="18" refX="18" id="ONE_OR_MORE_START"><path d="M0,18 Q 18,0 36,18 Q 18,36 0,18 M42,9 L42,27" fill="none" stroke="gray"/></marker></defs><defs><marker orient="auto" markerHeight="36" markerWidth="45" refY="18" refX="27" id="ONE_OR_MORE_END"><path d="M3,9 L3,27 M9,18 Q27,0 45,18 Q27,36 9,18" fill="none" stroke="gray"/></marker></defs><defs><marker orient="auto" markerHeight="36" markerWidth="57" refY="18" refX="18" id="ZERO_OR_MORE_START"><circle r="6" cy="18" cx="48" fill="white" stroke="gray"/><path d="M0,18 Q18,0 36,18 Q18,36 0,18" fill="none" stroke="gray"/></marker></defs><defs><marker orient="auto" markerHeight="36" markerWidth="57" refY="18" refX="39" id="ZERO_OR_MORE_END"><circle r="6" cy="18" cx="9" fill="white" stroke="gray"/><path d="M21,18 Q39,0 57,18 Q39,36 21,18" fill="none" stroke="gray"/></marker></defs><path style="stroke: gray; fill: none;" marker-start="url(#ONLY_ONE_START)" marker-end="url(#ZERO_OR_MORE_END)" d="M70,131.6L70,139.933C70,148.267,70,164.933,78.79,181.6C87.581,198.267,105.162,214.933,113.952,223.267L122.743,231.6" class="er relationshipLine"/><path style="stroke: gray; fill: none;" marker-start="url(#ONLY_ONE_START)" marker-end="url(#ZERO_OR_MORE_END)" d="M270,109.6L270,121.6C270,133.6,270,157.6,261.21,177.933C252.419,198.267,234.838,214.933,226.048,223.267L217.257,231.6" class="er relationshipLine"/><g transform="translate(20,20 )" id="entity-users-33ae1e26-be31-5c1d-bf65-e859e9d0308e"><rect height="111.60000038146973" width="100" y="0" x="0" class="er entityBox"/><text transform="translate(50,11.800000190734863)" style="dominant-baseline: middle; text-anchor: middle; font-size: 12px;" y="0" x="0" id="text-entity-users-33ae1e26-be31-5c1d-bf65-e859e9d0308e" class="er entityLabel">users</text><rect height="22" width="42.10332012176514" y="23.600000381469727" x="0" class="er attributeBoxOdd"/><text transform="translate(5,34.60000038146973)" style="dominant-baseline: middle; font-size: 10.2px;" y="0" x="0" id="text-entity-users-33ae1e26-be31-5c1d-bf65-e859e9d0308e-attr-1-type" class="er entityLabel">int</text><rect height="22" width="57.89667987823486" y="23.600000381469727" x="42.10332012176514" class="er attributeBoxOdd"/><text transform="translate(47.10332012176514,34.60000038146973)" style="dominant-baseline: middle; font-size: 10.2px;" y="0" x="0" id="text-entity-users-33ae1e26-be31-5c1d-bf65-e859e9d0308e-attr-1-name" class="er entityLabel">id</text><rect height="22" width="42.10332012176514" y="45.60000038146973" x="0" class="er attributeBoxEven"/><text transform="translate(5,56.60000038146973)" style="dominant-baseline: middle; font-size: 10.2px;" y="0" x="0" id="text-entity-users-33ae1e26-be31-5c1d-bf65-e859e9d0308e-attr-2-type" class="er entityLabel">string</text><rect height="22" width="57.89667987823486" y="45.60000038146973" x="42.10332012176514" class="er attributeBoxEven"/><text transform="translate(47.10332012176514,56.60000038146973)" style="dominant-baseline: middle; font-size: 10.2px;" y="0" x="0" id="text-entity-users-33ae1e26-be31-5c1d-bf65-e859e9d0308e-attr-2-name" class="er entityLabel">name</text><rect height="22" width="42.10332012176514" y="67.60000038146973" x="0" class="er attributeBoxOdd"/><text transform="translate(5,78.60000038146973)" style="dominant-baseline: middle; font-size: 10.2px;" y="0" x="0" id="text-entity-users-33ae1e26-be31-5c1d-bf65-e859e9d0308e-attr-3-type" class="er entityLabel">string</text><rect height="22" width="57.89667987823486" y="67.60000038146973" x="42.10332012176514" class="er attributeBoxOdd"/><text transform="translate(47.10332012176514,78.60000038146973)" style="dominant-baseline: middle; font-size: 10.2px;" y="0" x="0" id="text-entity-users-33ae1e26-be31-5c1d-bf65-e859e9d0308e-attr-3-name" class="er entityLabel">email</text><rect height="22" width="42.10332012176514" y="89.60000038146973" x="0" class="er attributeBoxEven"/><text transform="translate(5,100.60000038146973)" style="dominant-baseline: middle; font-size: 10.2px;" y="0" x="0" id="text-entity-users-33ae1e26-be31-5c1d-bf65-e859e9d0308e-attr-4-type" class="er entityLabel">string</text><rect height="22" width="57.89667987823486" y="89.60000038146973" x="42.10332012176514" class="er attributeBoxEven"/><text transform="translate(47.10332012176514,100.60000038146973)" style="dominant-baseline: middle; font-size: 10.2px;" y="0" x="0" id="text-entity-users-33ae1e26-be31-5c1d-bf65-e859e9d0308e-attr-4-name" class="er entityLabel">password</text></g><g transform="translate(110.23749923706055,231.5999984741211 )" id="entity-modelhasroles-b187f890-502e-5c52-9bb8-4aa06547691e"><rect height="89.60000038146973" width="119.5250015258789" y="0" x="0" class="er entityBox"/><text transform="translate(59.76250076293945,11.800000190734863)" style="dominant-baseline: middle; text-anchor: middle; font-size: 12px;" y="0" x="0" id="text-entity-modelhasroles-b187f890-502e-5c52-9bb8-4aa06547691e" class="er entityLabel">model_has_roles</text><rect height="22" width="45.92177867889404" y="23.600000381469727" x="0" class="er attributeBoxOdd"/><text transform="translate(5,34.60000038146973)" style="dominant-baseline: middle; font-size: 10.2px;" y="0" x="0" id="text-entity-modelhasroles-b187f890-502e-5c52-9bb8-4aa06547691e-attr-1-type" class="er entityLabel">int</text><rect height="22" width="73.60322284698486" y="23.600000381469727" x="45.92177867889404" class="er attributeBoxOdd"/><text transform="translate(50.92177867889404,34.60000038146973)" style="dominant-baseline: middle; font-size: 10.2px;" y="0" x="0" id="text-entity-modelhasroles-b187f890-502e-5c52-9bb8-4aa06547691e-attr-1-name" class="er entityLabel">role_id</text><rect height="22" width="45.92177867889404" y="45.60000038146973" x="0" class="er attributeBoxEven"/><text transform="translate(5,56.60000038146973)" style="dominant-baseline: middle; font-size: 10.2px;" y="0" x="0" id="text-entity-modelhasroles-b187f890-502e-5c52-9bb8-4aa06547691e-attr-2-type" class="er entityLabel">string</text><rect height="22" width="73.60322284698486" y="45.60000038146973" x="45.92177867889404" class="er attributeBoxEven"/><text transform="translate(50.92177867889404,56.60000038146973)" style="dominant-baseline: middle; font-size: 10.2px;" y="0" x="0" id="text-entity-modelhasroles-b187f890-502e-5c52-9bb8-4aa06547691e-attr-2-name" class="er entityLabel">model_type</text><rect height="22" width="45.92177867889404" y="67.60000038146973" x="0" class="er attributeBoxOdd"/><text transform="translate(5,78.60000038146973)" style="dominant-baseline: middle; font-size: 10.2px;" y="0" x="0" id="text-entity-modelhasroles-b187f890-502e-5c52-9bb8-4aa06547691e-attr-3-type" class="er entityLabel">int</text><rect height="22" width="73.60322284698486" y="67.60000038146973" x="45.92177867889404" class="er attributeBoxOdd"/><text transform="translate(50.92177867889404,78.60000038146973)" style="dominant-baseline: middle; font-size: 10.2px;" y="0" x="0" id="text-entity-modelhasroles-b187f890-502e-5c52-9bb8-4aa06547691e-attr-3-name" class="er entityLabel">model_id</text></g><g transform="translate(220,42 )" id="entity-roles-fb364614-3b4d-5b30-987f-43c2f326d9bb"><rect height="67.60000038146973" width="100" y="0" x="0" class="er entityBox"/><text transform="translate(50,11.800000190734863)" style="dominant-baseline: middle; text-anchor: middle; font-size: 12px;" y="0" x="0" id="text-entity-roles-fb364614-3b4d-5b30-987f-43c2f326d9bb" class="er entityLabel">roles</text><rect height="22" width="50.610107421875" y="23.600000381469727" x="0" class="er attributeBoxOdd"/><text transform="translate(5,34.60000038146973)" style="dominant-baseline: middle; font-size: 10.2px;" y="0" x="0" id="text-entity-roles-fb364614-3b4d-5b30-987f-43c2f326d9bb-attr-1-type" class="er entityLabel">int</text><rect height="22" width="49.389892578125" y="23.600000381469727" x="50.610107421875" class="er attributeBoxOdd"/><text transform="translate(55.610107421875,34.60000038146973)" style="dominant-baseline: middle; font-size: 10.2px;" y="0" x="0" id="text-entity-roles-fb364614-3b4d-5b30-987f-43c2f326d9bb-attr-1-name" class="er entityLabel">id</text><rect height="22" width="50.610107421875" y="45.60000038146973" x="0" class="er attributeBoxEven"/><text transform="translate(5,56.60000038146973)" style="dominant-baseline: middle; font-size: 10.2px;" y="0" x="0" id="text-entity-roles-fb364614-3b4d-5b30-987f-43c2f326d9bb-attr-2-type" class="er entityLabel">string</text><rect height="22" width="49.389892578125" y="45.60000038146973" x="50.610107421875" class="er attributeBoxEven"/><text transform="translate(55.610107421875,56.60000038146973)" style="dominant-baseline: middle; font-size: 10.2px;" y="0" x="0" id="text-entity-roles-fb364614-3b4d-5b30-987f-43c2f326d9bb-attr-2-name" class="er entityLabel">name</text></g><rect height="13.600000381469727" width="73.2125015258789" y="181.4572172164917" x="46.13407516479492" class="er relationshipLabelBox"/><text style="text-anchor: middle; dominant-baseline: middle; font-size: 12px;" y="188.25721740722656" x="82.74032592773438" id="rel3" class="er relationshipLabel">id = model_id</text><rect height="13.600000381469727" width="61.22500228881836" y="171.34537029266357" x="230.50523567199707" class="er relationshipLabelBox"/><text style="text-anchor: middle; dominant-baseline: middle; font-size: 12px;" y="178.14537048339844" x="261.11773681640625" id="rel4" class="er relationshipLabel">id = role_id</text></svg>